:SAMPLES-PER-SECOND 30
:FULLY-SPECIFIED
:DEGREES
16
root  68.6279 40.5305 5.16463 -172.985 -79.8744 172.869
RightUpLeg  2.57336 -9.11768 -6.81605
RightLeg  3.30831 -6.88053 3.72547
RightFoot  -3.23026 -0.0554154 0.44846
RightToes  -1.16417e-010 0 -3.6325e-017
Spine  2.78788 0.87053 -3.33111
Spine1  4.71991 0.390821 2.58162
HEad  -4.27308 -6.75613 5.51359
LeftShoulder1  2.0941 -4.00418 -21.4365
LeftArm  -29.7712 21.1055 -8.85612
LeftForeArm  19.0072 -16.6845 -0.935782
LeftHand  -0.244104 0.0205437 5.32207
RightShoulder  0.892012 0.60998 14.8495
RightArm  -30.8795 -5.52383 6.48764
RightForeArm  -7.24795 12.4156 2.78377
RightHand  -2.86979 8.63842 -23.7537
LeftUpLeg  2.30855 4.90899 2.61329
LeftLeg  0.753767 14.8867 -3.98555
LeftFoot  -1.74943 -0.0182882 0.329346
LeftToes  4.18335e-011 -7.14095e-012 4.81992e-012
17
root  68.6253 40.5274 5.24767 -173.065 -79.4779 172.857
RightUpLeg  2.54635 -9.25415 -7.04982
RightLeg  3.39043 -6.32422 3.76116
RightFoot  -3.15817 -0.0668856 0.626497
RightToes  -1.16417e-010 0 -3.6325e-017
Spine  3.1634 0.883546 -3.38995
Spine1  4.60955 0.4195 2.46752
HEad  -3.2607 -7.86757 5.84845
LeftShoulder1  2.3542 -4.30207 -23.8432
LeftArm  -35.0799 23.9302 -9.98133
LeftForeArm  25.4452 -23.6089 -3.63341
LeftHand  -0.244104 0.0205437 5.32207
RightShoulder  1.19596 1.39957 17.785
RightArm  -31.11 -7.29691 6.92053
RightForeArm  -8.2378 17.0223 3.97628
RightHand  -2.91436 8.6921 -24.0128
LeftUpLeg  2.53803 4.7523 2.36831
LeftLeg  0.529139 15.4581 -3.96858
LeftFoot  -1.85568 -0.0162588 0.329826
LeftToes  4.18335e-011 -7.14095e-012 4.81992e-012
18
root  68.6152 40.5193 5.34876 -173.698 -78.9972 173.428
RightUpLeg  2.50964 -9.30131 -7.16562
RightLeg  3.41547 -5.92577 3.74995
RightFoot  -3.06445 -0.0738523 0.732595
RightToes  -1.16417e-010 0 -3.6325e-017
Spine  3.13105 0.857461 -3.30015
Spine1  5.09251 0.415145 2.33286
HEad  -2.1621 -8.80555 6.2601
LeftShoulder1  2.53962 -4.29143 -26.361
LeftArm  -35.6731 26.2753 -12.167
LeftForeArm  29.0523 -30.4802 -5.0539
LeftHand  -0.244104 0.0205437 5.32207
RightShoulder  1.66285 2.50591 21.3196
RightArm  -30.9897 -8.90329 7.31988
RightForeArm  -9.68902 21.5319 5.08798
RightHand  -2.88335 8.39389 -24.2571
LeftUpLeg  2.67848 4.73222 2.25843
LeftLeg  0.51727 16.0118 -3.98827
LeftFoot  -2.19266 -0.0143434 0.344008
LeftToes  4.18335e-011 -7.14095e-012 4.81992e-012
19
root  68.5991 40.5035 5.47215 -174.69 -78.4192 174.383
RightUpLeg  2.4544 -9.26125 -7.20629
RightLeg  3.40985 -5.48739 3.68685
RightFoot  -3.03352 -0.0844664 0.877121
RightToes  -1.16417e-010 0 -3.6325e-017
Spine  2.78522 0.86774 -3.13235
Spine1  6.01772 0.422811 2.31093
HEad  -0.863199 -9.85468 6.70359
LeftShoulder1  2.68814 -4.20627 -28.6969
LeftArm  -35.8666 28.0874 -15.4984
LeftForeArm  34.0271 -35.993 -6.11095
LeftHand  -0.244104 0.0205437 5.32207
RightShoulder  2.2387 3.6882 24.9991
RightArm  -30.4516 -10.0746 7.95852
RightForeArm  -12.5584 25.1532 6.00863
RightHand  -3.06223 8.637 -25.2607
LeftUpLeg  2.55003 4.86367 2.26137
LeftLeg  1.09521 16.4899 -3.95008
LeftFoot  -2.76569 -0.0140993 0.411063
LeftToes  4.18335e-011 -7.14095e-012 4.81992e-012
20
root  68.5727 40.4807 5.62794 -175.667 -77.7856 175.203
RightUpLeg  2.52463 -9.27529 -7.36315
RightLeg  3.41073 -4.72806 3.64913
RightFoot  -3.03205 -0.114577 1.28479
RightToes  -1.16417e-010 0 -3.6325e-017
Spine  2.57128 0.989319 -2.96351
Spine1  6.92122 0.498346 2.46062
HEad  0.576571 -11.6523 7.08163
LeftShoulder1  2.91518 -4.36589 -30.9005
LeftArm  -35.5865 29.4047 -19.6702
LeftForeArm  39.0731 -39.2989 -6.71324
LeftHand  -0.244104 0.0205437 5.32207
RightShoulder  2.81894 4.65725 28.5453
RightArm  -30.084 -10.7674 9.01355
RightForeArm  -15.57 27.5517 6.71938
RightHand  -3.34583 9.40152 -26.1513
LeftUpLeg  2.3993 4.99622 2.20199
LeftLeg  2.02416 16.9933 -3.80775
LeftFoot  -3.44149 -0.0201207 0.593035
LeftToes  4.18335e-011 -7.14095e-012 4.81992e-012
21
root  68.5242 40.4562 5.82185 -176.566 -77.1974 175.787
RightUpLeg  2.77032 -9.39526 -7.67731
RightLeg  3.45236 -3.96077 3.63942
RightFoot  -2.99667 -0.151998 1.79954
RightToes  -1.16417e-010 0 -3.6325e-017
Spine  2.48933 1.15721 -2.62911
Spine1  7.83039 0.628072 2.57252
HEad  1.91521 -14.1875 7.35992
LeftShoulder1  3.26081 -4.81186 -33.0817
LeftArm  -34.381 30.0427 -24.0713
LeftForeArm  42.1408 -39.8365 -6.69182
LeftHand  -0.244104 0.0205437 5.32207
RightShoulder  3.38307 5.43359 31.9028
RightArm  -30.2698 -11.0981 10.5251
RightForeArm  -17.9673 28.9222 7.17082
RightHand  -3.3304 9.62953 -25.646
LeftUpLeg  2.49257 5.02132 2.00648
LeftLeg  2.82558 17.5894 -3.62081
LeftFoot  -4.18113 -0.0270552 0.836118
LeftToes  4.18335e-011 -7.14095e-012 4.81992e-012
22
root  68.4514 40.4284 6.05007 -177.431 -76.6455 176.337
RightUpLeg  2.97295 -9.50248 -8.0222
RightLeg  3.63873 -3.46875 3.54621
RightFoot  -3.0694 -0.183166 2.24209
RightToes  -1.16417e-010 0 -3.6325e-017
Spine  2.25599 1.31957 -2.02496
Spine1  8.95138 0.80296 2.49561
HEad  2.99368 -16.6951 7.52325
LeftShoulder1  3.64367 -5.33422 -35.085
LeftArm  -32.0026 29.7905 -28.393
LeftForeArm  42.693 -37.5144 -6.03166
LeftHand  -0.244104 0.0205437 5.32207
RightShoulder  3.97508 6.21333 34.9407
RightArm  -31.0533 -11.2504 12.4811
RightForeArm  -20.6276 29.6301 7.47148
RightHand  -2.94903 8.94007 -23.8746
LeftUpLeg  2.64579 5.02813 1.7575
LeftLeg  3.574 18.1725 -3.42594
LeftFoot  -5.10902 -0.0203873 0.937936
LeftToes  4.18335e-011 -7.14095e-012 4.81992e-012
23
root  68.3645 40.3835 6.30556 -178.172 -76.0382 176.828
RightUpLeg  2.99735 -9.53401 -8.37846
RightLeg  4.04915 -2.8233 3.34089
RightFoot  -3.4587 -0.232462 3.03633
RightToes  -1.16417e-010 0 -3.6325e-017
Spine  2.04205 1.52186 -1.38086
Spine1  10.0057 1.0359 2.35909
HEad  3.87216 -18.4627 7.52634
LeftShoulder1  3.97848 -5.77722 -36.6914
LeftArm  -28.5542 28.9449 -32.5861
LeftForeArm  42.2292 -33.1089 -4.94912
LeftHand  -0.244104 0.0205437 5.32207
RightShoulder  4.58123 7.03434 37.4469
RightArm  -32.254 -11.3135 14.8982
RightForeArm  -24.5307 29.9338 7.71861
RightHand  -2.56204 8.19828 -21.963
LeftUpLeg  2.58012 5.246 1.49373
LeftLeg  4.72479 18.516 -3.12116
LeftFoot  -6.33366 0.00420531 0.770428
LeftToes  4.18335e-011 -7.14095e-012 4.81992e-012
